Coordinates
version=1
nRows=16
nColumns=40
inDegrees=yes

Units are S.I. units (second, meters, Newtons, ...)
Angles are in degrees.

endheader
time	pelvis_tilt	pelvis_list	pelvis_rotation	pelvis_tx	pelvis_ty	pelvis_tz	hip_flexion_r	hip_adduction_r	hip_rotation_r	knee_angle_r	knee_angle_r_beta	ankle_angle_r	subtalar_angle_r	mtp_angle_r	hip_flexion_l	hip_adduction_l	hip_rotation_l	knee_angle_l	knee_angle_l_beta	ankle_angle_l	subtalar_angle_l	mtp_angle_l	lumbar_extension	lumbar_bending	lumbar_rotation	arm_flex_r	arm_add_r	arm_rot_r	elbow_flex_r	pro_sup_r	wrist_flex_r	wrist_dev_r	arm_flex_l	arm_add_l	arm_rot_l	elbow_flex_l	pro_sup_l	wrist_flex_l	wrist_dev_l
     30.16000000	     -3.34700896	     -3.78874239	     -1.13709505	      0.91499437	      0.93505294	      0.41933775	     30.45722772	     -6.48090781	     -7.27655099	     56.80297529	     56.80297529	      5.85299102	    -10.50627000	      0.42613928	     12.55141758	     -3.90038631	    -10.76508243	     19.28322098	     19.28322098	     13.80851734	     -1.68115260	     -5.09977274	     -9.76875876	      3.79066368	     -0.07541899	     -5.05811860	    -12.07870269	     -8.32536899	     37.91041214	     45.70690325	      0.00000000	      0.00000000	     14.46698987	    -15.47153909	     -0.63464196	     39.72401122	     45.83293981	      0.00000000	      0.00000000
     30.17292857	     -3.31712773	     -3.73993091	     -1.37874108	      0.91467758	      0.93515716	      0.41915385	     30.55771729	     -6.35559049	     -7.33116459	     53.61789240	     53.61789240	      5.53690715	    -10.23269821	     -1.09283212	     11.88018491	     -3.84994055	    -11.12627105	     19.02077447	     19.02077447	     14.06241855	     -1.40794546	     -5.39383054	     -9.72775919	      3.65910438	     -0.03056240	     -5.52510880	    -12.21135472	     -9.10012938	     34.78986030	     45.88552371	      0.00000000	      0.00000000	     15.16042499	    -15.53758427	     -0.83719267	     39.93223936	     45.90632663	      0.00000000	      0.00000000
     30.18585714	     -3.32889076	     -3.71595570	     -1.59741356	      0.91435317	      0.93516156	      0.41891997	     30.57905453	     -6.18711841	     -7.42688139	     50.27466526	     50.27466526	      5.65154160	     -9.58549172	     -0.89215064	     11.24050026	     -3.77105724	    -11.28338581	     18.70511419	     18.70511419	     14.33012371	     -1.38776171	     -5.41199416	     -9.68180229	      3.62054022	     -0.11264825	     -6.65578260	    -12.55668974	     -9.25710632	     33.97592183	     45.92176334	      0.00000000	      0.00000000	     15.62451441	    -15.72888259	     -0.96046999	     40.41027313	     45.93160127	      0.00000000	      0.00000000
     30.19878571	     -3.22889266	     -3.67095330	     -1.84807652	      0.91409447	      0.93532134	      0.41876799	     30.29954879	     -6.00105445	     -7.55390248	     46.65339935	     46.65339935	      5.61191925	     -8.75445491	     -0.71198269	     10.43226632	     -3.66602759	    -11.50155859	     18.31126723	     18.31126723	     14.57640302	     -1.29404993	     -5.42592147	     -9.75791600	      3.52807258	      0.08197474	     -7.67408754	    -12.91638534	     -9.48768190	     32.71176799	     45.98324169	      0.00000000	      0.00000000	     16.21017617	    -15.74003502	     -1.09233190	     41.09538875	     45.96242541	      0.00000000	      0.00000000
     30.21171429	     -3.34774698	     -3.34689806	     -2.10650376	      0.91355349	      0.93478871	      0.41866570	     30.36409562	     -6.02910512	     -7.44181638	     43.18744949	     43.18744949	      5.52751344	     -8.00849290	     -0.29916892	     10.08729002	     -3.30485673	    -11.79008305	     18.27665092	     18.27665092	     14.80805218	     -1.35689254	     -5.53543604	     -9.59298078	      3.08918218	     -0.06744984	     -8.53448728	    -13.22526978	     -9.63114886	     31.99008247	     46.01724630	      0.00000000	      0.00000000	     16.65920231	    -16.07278623	     -1.21683325	     41.45769393	     45.98547166	      0.00000000	      0.00000000
     30.22464286	     -3.14193554	     -3.45241643	     -2.34057403	      0.91347697	      0.93516598	      0.41868069	     29.56951719	     -5.72145180	     -7.97135491	     39.01250694	     39.01250694	      4.77641189	     -6.57501082	     -1.56221174	      8.99517019	     -3.30978264	    -11.92370587	     17.54430490	     17.54430490	     14.95633836	     -1.23258090	     -5.65737261	     -9.79965870	      3.14490513	     -0.08461618	     -7.24505654	    -13.14049080	    -12.20133071	     25.61562651	     46.50429288	      0.00000000	      0.00000000	     16.50391442	    -16.06886553	     -1.95523275	     43.57686396	     46.11234191	      0.00000000	      0.00000000
     30.23757143	     -3.23666926	     -3.43913045	     -2.56694608	      0.91307730	      0.93477024	      0.41885584	     29.25591920	     -5.41323818	     -8.24272074	     35.14552630	     35.14552630	      4.45057695	     -5.15744849	     -0.90191107	      8.51274948	     -3.25728747	    -12.04778916	     17.29848860	     17.29848860	     15.20866011	     -1.28362274	     -5.71028646	     -9.66999218	      3.10571733	     -0.01085900	     -8.06281136	    -13.51132023	    -12.45688100	     25.14206656	     46.54148600	      0.00000000	      0.00000000	     16.86765221	    -16.11497093	     -2.10739079	     44.05429729	     46.13973492	      0.00000000	      0.00000000
     30.25050000	     -3.21774344	     -3.40741643	     -2.78345424	      0.91274393	      0.93443944	      0.41913097	     28.77769142	     -5.16287490	     -8.70623611	     31.32656888	     31.32656888	      4.09917600	     -3.17909404	     -0.23545694	      7.87855474	     -3.17185038	    -12.16077416	     16.99715165	     16.99715165	     15.45326951	     -1.33895398	     -5.77279164	     -9.73212338	      3.02281549	      0.27022511	     -8.80746129	    -13.90516649	    -12.77805240	     24.46962152	     46.59589531	      0.00000000	      0.00000000	     17.26344837	    -16.01264803	     -2.32116568	     44.79750991	     46.17666290	      0.00000000	      0.00000000
     30.26342857	     -3.24148670	     -3.29472459	     -2.99850947	      0.91239960	      0.93394486	      0.41950976	     28.37126020	     -5.00641330	     -9.27415044	     27.67486057	     27.67486057	      3.69629781	     -0.77479979	      0.49533903	      7.28150560	     -2.99109672	    -12.25584602	     16.65919073	     16.65919073	     15.63372765	     -1.45845912	     -5.88479037	     -9.75037745	      2.86775549	      0.52094699	     -9.37095666	    -14.22979185	    -13.25660580	     23.68919299	     46.67387851	      0.00000000	      0.00000000	     17.50551598	    -15.91504192	     -2.66778521	     45.76610100	     46.22885743	      0.00000000	      0.00000000
     30.27635714	     -3.30780978	     -3.23095696	     -3.20313077	      0.91212267	      0.93330884	      0.42013340	     28.00266161	     -4.73827831	     -9.83077791	     24.18711181	     24.18711181	      3.23982806	      1.64867979	      1.37999074	      6.74082693	     -2.87890815	    -12.29626153	     16.35150733	     16.35150733	     15.81495856	     -1.64897336	     -6.06742980	     -9.69291466	      2.73292689	      0.64759676	     -9.78698996	    -14.55170354	    -13.73658356	     23.08202351	     46.74723418	      0.00000000	      0.00000000	     17.58338690	    -15.86357003	     -3.05063141	     46.71800779	     46.28205758	      0.00000000	      0.00000000
     30.28928571	     -3.36915777	     -3.14021763	     -3.37929508	      0.91198499	      0.93262434	      0.42085043	     27.67677236	     -4.53172301	    -10.57052412	     21.04428484	     21.04428484	      2.83992521	      4.32243631	      2.52651564	      6.13638792	     -2.71684985	    -12.27858120	     15.93152645	     15.93152645	     15.91630983	     -1.89561152	     -6.38484986	     -9.62443612	      2.59145105	      0.67607826	    -10.11015423	    -14.89147084	    -14.45035467	     22.52675608	     46.84462046	      0.00000000	      0.00000000	     17.41530362	    -15.80003340	     -3.66583924	     48.00445995	     46.36061726	      0.00000000	      0.00000000
     30.30221429	     -3.44684599	     -3.06689127	     -3.55131448	      0.91182411	      0.93187091	      0.42178528	     27.44455461	     -4.26210165	    -11.14925658	     18.29072855	     18.29072855	      2.44647831	      6.76509367	      4.06332537	      5.55794975	     -2.58705060	    -12.22087141	     15.51670254	     15.51670254	     15.93279020	     -2.19317456	     -6.84620787	     -9.59072743	      2.48798242	      0.62233521	    -10.32435038	    -15.16557509	    -15.32813209	     22.21588505	     46.94918569	      0.00000000	      0.00000000	     17.07439754	    -15.75481141	     -4.43281868	     49.35210532	     46.45411857	      0.00000000	      0.00000000
     30.31514286	     -3.56662767	     -3.04467291	     -3.70164440	      0.91173657	      0.93098699	      0.42299758	     27.26703151	     -3.84949306	    -11.35541818	     15.84917289	     15.84917289	      1.80350085	      8.22118888	      4.93707138	      5.10312671	     -2.57792511	    -12.26378261	     15.30826496	     15.30826496	     16.18436004	     -2.29427291	     -7.00927731	     -9.45192919	      2.41733461	      0.71042021	    -10.63718430	    -15.38293319	    -15.50109598	     22.11989923	     46.96873990	      0.00000000	      0.00000000	     17.07386008	    -15.68176639	     -4.58013303	     49.78142018	     46.47408276	      0.00000000	      0.00000000
     30.32807143	     -3.53737987	     -3.04446077	     -3.84276325	      0.91192405	      0.93032151	      0.42431831	     26.97078612	     -3.49883155	    -11.79808065	     13.93993609	     13.93993609	      1.32786160	      9.82417737	      5.78696587	      4.39596547	     -2.57100974	    -12.31481624	     14.95658165	     14.95658165	     16.41429237	     -2.31860690	     -7.18793528	     -9.47697490	      2.36831044	      0.81587529	    -10.95241532	    -15.68021809	    -15.73100594	     22.13233359	     46.98856230	      0.00000000	      0.00000000	     16.99450561	    -15.58916788	     -4.80717515	     50.41665738	     46.50339320	      0.00000000	      0.00000000
     30.34100000	     -3.45993382	     -2.97530820	     -3.97708419	      0.91224021	      0.92968803	      0.42566201	     26.82583954	     -3.35050072	    -12.49656705	     12.86338767	     12.86338767	      1.33810284	     11.54911449	      7.21065491	      3.51716773	     -2.44492013	    -12.31518900	     14.36541285	     14.36541285	     16.40418533	     -2.44007106	     -7.68188601	     -9.61334129	      2.25641315	      0.71431503	    -11.20679871	    -15.92146765	    -16.50248927	     22.79601758	     47.02808179	      0.00000000	      0.00000000	     16.32400119	    -15.55730974	     -5.65582128	     52.10887984	     46.59870768	      0.00000000	      0.00000000
     30.35392857	     -3.48515870	     -3.02909204	     -4.06526184	      0.91254828	      0.92889707	      0.42725211	     26.68945916	     -2.98046824	    -12.63636229	     12.00195173	     12.00195173	      1.04107050	     11.87480216	      7.66753400	      2.90492825	     -2.53091316	    -12.30006743	     14.10807499	     14.10807499	     16.65933617	     -2.47014483	     -7.83256825	     -9.53655434	      2.29308818	      0.68550626	    -11.30436239	    -16.07693174	    -16.71322644	     22.96199423	     47.03832096	      0.00000000	      0.00000000	     16.11504225	    -15.48314970	     -5.84635356	     52.47296306	     46.62008126	      0.00000000	      0.00000000
